<?xml version="1.0" encoding="UTF-8" standalone="no"?>
<!-- Created with Inkscape (http://www.inkscape.org/) -->

<svg
   xmlnsDc="http://purl.org/dc/elements/1.1/"
   xmlnsCc="http://creativecommons.org/ns#"
   xmlnsRdf="http://www.w3.org/1999/02/22-rdf-syntax-ns#"
   xmlnsSvg="http://www.w3.org/2000/svg"
   xmlns="http://www.w3.org/2000/svg"
   xmlnsSodipodi="http://sodipodi.sourceforge.net/DTD/sodipodi-0.dtd"
   xmlnsInkscape="http://www.inkscape.org/namespaces/inkscape"
   width="120"
   height="60"
   viewBox="0 0 120 60"
   id="svg3476"
   version="1.1"
   inkscapeVersion="0.92.4 (5da689c313, 2019-01-14)"
   sodipodiDocname="w3_css-ar21.svg">
  <defs
     id="defs3478" />
  <sodipodiNamedview
     id="base"
     pagecolor="#ffffff"
     bordercolor="#666666"
     borderopacity="1.0"
     inkscapePageopacity="0.0"
     inkscapePageshadow="2"
     inkscapeZoom="6.0991803"
     inkscapeCx="37.811232"
     inkscapeCy="51.471985"
     inkscapeDocument-units="px"
     inkscapeCurrent-layer="layer1"
     showgrid="false"
     fit-margin-top="0"
     fit-margin-left="0"
     fit-margin-right="0"
     fit-margin-bottom="0"
     inkscapeWindow-width="1850"
     inkscapeWindow-height="1016"
     inkscapeWindow-x="70"
     inkscapeWindow-y="27"
     inkscapeWindow-maximized="1"
     units="px" />
  <metadata
     id="metadata3481">
  </metadata>
  <g
     inkscapeLabel="Calque 1"
     inkscapeGroupmode="layer"
     id="layer1"
     transform="translate(-193.633,-732.11218)">
    <g
       id="g29"
       transform="translate(-10.821126,3.1151727)">
      <path
         style="stroke-width:0.31431133"
         id="path2999"
         d="m 257.17003,747.19755 h 17.28712 v 7.22917 h -10.05796 v 7.22916 h 10.05796 v 7.22916 h -17.28712 z"
         inkscapeConnector-curvature="0" />
      <path
         style="stroke-width:0.31431133"
         id="path3001"
         d="m 277.91457,747.19755 h 17.28713 v 6.28624 h -10.05796 v 1.25723 h 10.05796 v 14.45833 h -17.28713 v -6.60054 h 10.05796 v -1.25724 h -10.05796 z"
         inkscapeConnector-curvature="0" />
      <path
         style="stroke-width:0.31431133"
         id="path3003"
         d="m 298.65913,747.19755 h 17.28711 v 6.28624 h -10.05796 v 1.25723 h 10.05796 v 14.45833 h -17.28711 v -6.60054 h 10.05797 v -1.25724 h -10.05797 z"
         inkscapeConnector-curvature="0" />
    </g>
    <g
       id="g37"
       transform="matrix(0.60400616,0,0,0.60400616,83.235735,307.26789)">
      <polygon
         transform="matrix(0.17578125,0,0,0.17578125,180.51392,698.3622)"
         id="polygon2989"
         points="404.321,470.819 255.778,512 107.644,470.877 74.633,100.62 437.367,100.62 "
         style="fill:#264de4" />
      <polygon
         transform="matrix(0.17578125,0,0,0.17578125,180.51392,698.3622)"
         id="polygon2991"
         points="256,480.523 376.03,447.246 404.27,130.894 256,130.894 "
         style="fill:#2965f1" />
      <polygon
         transform="matrix(0.17578125,0,0,0.17578125,180.51392,698.3622)"
         id="polygon2993"
         points="256,268.217 150.31,268.217 154.38,313.627 256,313.627 "
         style="fill:#ebebeb" />
      <polygon
         transform="matrix(0.17578125,0,0,0.17578125,180.51392,698.3622)"
         id="polygon2995"
         points="255.843,176.305 142.132,176.305 146.26,221.716 256,221.716 256,176.305 "
         style="fill:#ebebeb" />
      <polygon
         transform="matrix(0.17578125,0,0,0.17578125,180.51392,698.3622)"
         id="polygon2997"
         points="255.801,386.206 205.227,372.55 201.994,336.333 177.419,336.333 156.409,336.333 162.771,407.634 255.791,433.457 256,433.399 256,386.153 "
         style="fill:#ebebeb" />
      <polygon
         transform="matrix(0.17578125,0,0,0.17578125,180.51392,698.3622)"
         id="polygon3005"
         points="319.831,221.716 315.699,268.217 255.843,268.217 255.843,313.627 311.761,313.627 306.49,372.521 255.843,386.191 255.843,433.435 348.937,407.634 349.62,399.962 360.291,280.411 361.399,268.217 369.597,176.305 255.843,176.305 255.843,221.716 "
         style="fill:#ffffff" />
    </g>
  </g>
</svg>
